<?xml version="1.0" encoding="utf-8"?>
<!-- Generator: Adobe Illustrator 24.1.0, SVG Export Plug-In . SVG Version: 6.00 Build 0)  -->
<svg version="1.1" id="Layer_1" xmlns="http://www.w3.org/2000/svg" xmlns:xlink="http://www.w3.org/1999/xlink" x="0px" y="0px"
	 viewBox="0 0 402.41 111.92" style="enable-background:new 0 0 402.41 111.92;" xml:space="preserve">
<style type="text/css">
	.st0{fill:none;}
	.st1{clip-path:url(#SVGID_2_);}
	.st2{fill:#010101;}
	.st3{fill:#BE202E;}
	.st4{clip-path:url(#SVGID_4_);fill:none;stroke:#010101;stroke-width:3;stroke-miterlimit:10;}
	.st5{clip-path:url(#SVGID_6_);}
</style>
<g>
	<rect x="109.58" y="2.44" class="st0" width="321.05" height="109.49"/>
	<path d="M126.6,30.25c-1.16,0-3.42-0.12-4.64-0.18v12.2c0,1.89,1.04,2.75,2.38,2.75v1.1h-12.51v-1.1c1.46,0,2.32-0.98,2.32-2.75
		V7.19c0-1.65-0.92-2.62-2.32-2.62V3.41c3.72-0.18,10.43-0.49,14.64-0.49c11.77,0,18.55,3.72,18.55,13.67
		C145.02,24.76,138.25,30.25,126.6,30.25z M127.09,9.33c-2.26,0-3.78,0.06-5.12,0.12v14.34c1.4,0.12,3.17,0.18,4.82,0.18
		c7.56,0,10.37-2.99,10.37-7.38C137.15,11.58,133.25,9.33,127.09,9.33z"/>
	<path d="M172.22,46.11l-8.6,0.18c-0.12-0.43-0.49-1.89-0.61-2.93h-0.06c-1.53,1.89-4.21,3.84-8.36,3.84
		c-6.59,0-10.55-3.11-10.55-7.99c0-5.49,3.42-8.11,11.65-10.07l7.02-1.65V27.2c0-2.99-1.59-4.21-5.98-4.21
		c-5.73,0-7.63,1.52-8.66,2.93l-1.04-0.24l1.46-7.56c1.89-0.43,6.04-1.1,9.76-1.1c7.93,0,11.77,3.17,11.77,11.47v13.67
		c0,2.2,0.67,2.87,2.2,2.87V46.11z M162.7,32.57l-5.98,1.52c-3.78,0.98-5.25,2.14-5.25,4.51c0,1.77,1.22,2.93,4.09,2.93
		c5.37,0,7.14-3.29,7.14-6.1V32.57z"/>
	<path d="M184.23,47.15c-4.09,0-7.44-0.79-9.7-1.65l-1.53-7.81l1.28-0.37c1.1,2.14,3.6,4.39,9.27,4.39c5.43,0,7.2-1.4,7.2-3.29
		c0-1.83-1.34-2.5-3.78-3.11l-6.22-1.59c-4.15-1.04-6.83-3.78-6.83-8.17c0-5.61,5.67-8.54,12.26-8.54c3.72,0,6.71,0.43,9.21,0.92
		l1.16,7.63l-1.16,0.31c-1.1-2.2-4.45-3.29-8.48-3.29c-4.58,0-5.73,1.46-5.73,2.87c0,1.34,0.85,1.95,3.42,2.56l5.31,1.22
		c4.39,1.04,8.3,3.29,8.3,8.66C198.2,43.49,193.87,47.15,184.23,47.15z"/>
	<path d="M227.79,46.11l-8.6,0.18c-0.12-0.43-0.49-1.89-0.61-2.93h-0.06c-1.53,1.89-4.21,3.84-8.36,3.84
		c-6.59,0-10.55-3.11-10.55-7.99c0-5.49,3.42-8.11,11.65-10.07l7.02-1.65V27.2c0-2.99-1.59-4.21-5.98-4.21
		c-5.73,0-7.62,1.52-8.66,2.93l-1.04-0.24l1.46-7.56c1.89-0.43,6.04-1.1,9.76-1.1c7.93,0,11.77,3.17,11.77,11.47v13.67
		c0,2.2,0.67,2.87,2.2,2.87V46.11z M218.27,32.57l-5.98,1.52c-3.78,0.98-5.25,2.14-5.25,4.51c0,1.77,1.22,2.93,4.09,2.93
		c5.37,0,7.14-3.29,7.14-6.1V32.57z"/>
	<path d="M259.4,46.11l-8.66,0.18c-0.24-0.55-0.49-2.2-0.55-2.87h-0.12c-1.65,2.2-4.03,3.78-7.62,3.78
		c-7.81,0-13.97-6.1-13.97-15.07c0-9.03,6.89-15.13,14.34-15.13c3.36,0,5.43,0.79,6.71,1.59h0.18V7.37c0-2.01-0.79-2.62-2.32-2.81
		V3.53l9.76-1.1v39.65c0,2.32,0.79,2.93,2.26,2.93V46.11z M249.7,25.61c-1.59-1.34-3.54-2.5-6.47-2.5c-4.21,0-7.26,3.29-7.26,9.03
		c0,5.8,3.11,9.21,7.26,9.21c3.11,0,5.06-1.83,6.47-3.54V25.61z"/>
	<path d="M268.56,37.39c1.28,2.62,3.6,3.84,8.48,3.84c3.84,0,7.08-1.71,8.24-3.54l1.04,0.24l-1.28,7.2
		c-1.53,0.67-5.31,2.07-8.79,2.07c-8.91,0-15.86-5.12-15.86-14.82c0-9.15,6.71-15.37,14.52-15.37c9.46,0,12.38,6.71,13.12,14.03
		L268.56,37.39z M280.15,27.87c-0.37-2.87-2.07-4.88-5.25-4.88c-4.27,0-7.32,3.97-7.38,8.48c0,0.18,0,0.43,0,0.61L280.15,27.87z"/>
	<path d="M320.56,46.11h-12.02v-1.1c1.52,0,2.32-0.79,2.32-2.75V29.03c0-4.09-1.59-5.55-5.25-5.55c-2.75,0-5.31,2.44-7.02,4.21
		v14.58c0,2.26,0.85,2.75,2.2,2.75v1.1h-11.96v-1.1c1.34,0,2.26-0.49,2.26-2.75V22.08c0-2.32-1.04-2.93-2.26-2.93v-1.1l9.15-1.04
		v4.64h0.18c1.71-1.77,5.31-4.64,9.52-4.64c6.59,0,10.68,3.9,10.68,10.49v14.76c0,2.26,0.98,2.75,2.2,2.75V46.11z"/>
	<path d="M349.14,46.11l-8.6,0.18c-0.12-0.43-0.49-1.89-0.61-2.93h-0.06c-1.52,1.89-4.21,3.84-8.36,3.84
		c-6.59,0-10.55-3.11-10.55-7.99c0-5.49,3.42-8.11,11.65-10.07l7.02-1.65V27.2c0-2.99-1.59-4.21-5.98-4.21
		c-5.73,0-7.63,1.52-8.66,2.93l-1.04-0.24l1.46-7.56c1.89-0.43,6.04-1.1,9.76-1.1c7.93,0,11.77,3.17,11.77,11.47v13.67
		c0,2.2,0.67,2.87,2.2,2.87V46.11z M339.62,32.57l-5.98,1.52c-3.78,0.98-5.25,2.14-5.25,4.51c0,1.77,1.22,2.93,4.09,2.93
		c5.37,0,7.14-3.29,7.14-6.1V32.57z"/>
	<path d="M127.03,98.54c-4.94,0-10.92-0.12-15.19-0.43v-1.1c1.52,0,2.32-0.98,2.32-3.23V59.19c0-1.71-0.85-2.62-2.32-2.62v-1.16
		c3.9-0.24,10.86-0.43,14.82-0.43c11.16,0,17.26,3.36,17.26,11.53c0,3.36-2.38,7.08-5.92,8.54v0.12c3.9,1.34,7.81,4.39,7.81,10
		C145.82,92.8,140.51,98.54,127.03,98.54z M127.27,61.26c-1.65,0-3.9,0.12-5.37,0.18v10.98c1.4,0.06,3.72,0.12,6.16,0.12
		c5.31,0,7.87-2.5,7.87-5.43C135.93,63.16,132.88,61.26,127.27,61.26z M127.7,78.47c-2.2,0-4.03,0.06-5.8,0.18v13.42
		c1.59,0.12,3.84,0.12,5.31,0.12c6.47,0,10.8-2.32,10.8-6.96C138.01,80.42,133.13,78.47,127.7,78.47z"/>
	<path d="M168.76,77.43l-1.28-0.24c-0.37-1.34-1.4-1.71-3.29-1.71c-3.23,0-5.86,2.2-7.32,4.88v13.91c0,2.26,0.79,2.75,2.44,2.75v1.1
		h-12.2v-1.1c1.4,0,2.26-0.73,2.26-2.75V74.08c0-2.07-0.92-2.93-2.26-2.93v-1.1l9.15-1.04v5.31h0.18c1.52-2.5,4.51-5.31,8.42-5.31
		c2.75,0,3.97,0.3,5.43,1.04L168.76,77.43z"/>
	<path d="M183.05,98.11h-11.96v-1.1c1.4,0,2.26-0.73,2.26-2.75V74.2c0-2.07-0.73-3.05-2.26-3.05v-1.1l9.76-1.04v25.26
		c0,2.01,0.67,2.75,2.2,2.75V98.11z M177.01,62.24c-2.44,0-4.45-1.71-4.45-3.72s2.01-3.6,4.45-3.6s4.45,1.59,4.45,3.6
		S179.45,62.24,177.01,62.24z"/>
	<path d="M214.9,98.11l-8.66,0.18c-0.24-0.55-0.49-2.2-0.55-2.87h-0.12c-1.65,2.2-4.03,3.78-7.62,3.78
		c-7.81,0-13.97-6.1-13.97-15.07c0-9.03,6.89-15.13,14.34-15.13c3.36,0,5.43,0.79,6.71,1.59h0.18V59.37c0-2.01-0.79-2.62-2.32-2.81
		v-1.04l9.76-1.1v39.65c0,2.32,0.79,2.93,2.26,2.93V98.11z M205.2,77.61c-1.59-1.34-3.54-2.5-6.47-2.5c-4.21,0-7.26,3.29-7.26,9.03
		c0,5.79,3.11,9.21,7.26,9.21c3.11,0,5.06-1.83,6.47-3.54V77.61z"/>
	<path d="M244.98,70.05c-0.24,1.4-0.3,2.26-0.3,4.58v23.85c0,6.47-4.33,11.35-13.36,11.35c-5.25,0-7.93-0.85-10.43-1.52l-1.28-7.69
		l0.98-0.3c1.59,2.32,5.06,3.23,9.03,3.23c5.49,0,7.56-1.77,7.56-4.51v-2.5h-0.12c-1.4,1.28-3.72,2.44-6.47,2.44
		c-8.3,0-14.7-5.25-14.7-14.82c0-8.97,6.34-15.13,14.76-15.13c5.92,0,8.6,2.44,10.25,4.21h0.06l2.2-3.17H244.98z M237.18,78.16
		c-1.1-1.34-3.11-3.05-6.41-3.05c-4.03,0-7.38,2.99-7.38,9.03c0,5.73,3.11,8.85,7.32,8.85c3.05,0,5-1.28,6.47-2.99V78.16z"/>
	<path d="M255.81,89.39c1.28,2.62,3.6,3.84,8.48,3.84c3.84,0,7.08-1.71,8.24-3.54l1.04,0.24l-1.28,7.2
		c-1.52,0.67-5.31,2.07-8.78,2.07c-8.91,0-15.86-5.12-15.86-14.82c0-9.15,6.71-15.37,14.52-15.37c9.46,0,12.38,6.71,13.12,14.03
		L255.81,89.39z M267.41,79.87c-0.37-2.87-2.07-4.88-5.25-4.88c-4.27,0-7.32,3.96-7.38,8.48c0,0.18,0,0.43,0,0.61L267.41,79.87z"/>
	<path d="M324.14,87.56l-1.83,10.74c-0.3-0.06-1.28-0.18-2.26-0.18c-1.59,0-5.61,0.92-8.17,0.92c-12.44,0-20.8-8.17-20.8-22.27
		c0-13.48,9.46-22.33,21.05-22.33c2.38,0,6.22,0.85,7.69,0.85c1.04,0,2.38-0.24,2.38-0.24l1.77,9.52l-1.22,0.37
		c-1.53-2.38-5-3.9-10.37-3.9c-7.87,0-13.24,5.19-13.24,15.68c0,10.68,6.04,15.8,13.48,15.8c5.67,0,8.78-2.44,10.31-5.25
		L324.14,87.56z"/>
	<path d="M336.84,98.11h-11.96v-1.1c1.22,0,2.26-0.67,2.26-2.62V59.31c0-1.77-0.85-2.75-2.26-2.75v-1.04l9.76-1.1v39.96
		c0,2.13,0.98,2.62,2.2,2.62V98.11z"/>
	<path d="M368.89,98.11l-8.48,0.18c-0.24-0.73-0.55-2.44-0.67-3.6h-0.18c-1.77,1.83-5.25,4.58-9.46,4.58
		c-6.59,0-10.68-3.96-10.68-10.49v-14.7c0-1.89-0.67-2.93-2.26-2.93v-1.1l9.76-1.04v18.3c0,3.84,1.53,5.49,5.25,5.49
		c2.75,0,5.12-2.26,7.02-4.27V73.77c0-1.65-0.92-2.62-2.32-2.62v-1.1l9.82-1.04v25.07c0,2.32,0.67,2.93,2.2,2.93V98.11z"/>
	<path d="M386.01,99.21c-6.16,0-8.66-2.26-10.55-4.27h-0.18l-2.32,3.17h-1.4c0,0,0.3-2.32,0.3-4.64V59.31
		c0-1.71-0.73-2.75-2.26-2.75v-1.04l9.76-1.1v16.96h0.12c1.46-1.16,4.58-2.38,7.69-2.38c7.08,0,13.24,5.67,13.24,14.82
		C400.41,93.84,393.7,99.21,386.01,99.21z M385.46,75.11c-2.87,0-5.06,1.59-6.1,2.81V90.3c1.4,2.01,3.54,3.05,6.41,3.05
		c4.15,0,7.08-3.48,7.08-9.52C392.85,77.98,389.67,75.11,385.46,75.11z"/>
</g>
<rect class="st0" width="402.41" height="111.92"/>
<g>
	<g>
		<g>
			<defs>
				<rect id="SVGID_1_" x="6.33" y="1.73" width="97.17" height="100.02"/>
			</defs>
			<clipPath id="SVGID_2_">
				<use xlink:href="#SVGID_1_"  style="overflow:visible;"/>
			</clipPath>
			<g class="st1">
				<path class="st2" d="M35.74,48.45h-7.68c0.95-1.03,1.65-2.27,2.11-3.73c0.45-1.46,0.68-3.17,0.68-5.13
					c0-1.22-0.11-2.08-0.32-2.59c-0.21-0.5-0.56-0.76-1.05-0.76c-0.76,0-1.38,0.76-1.89,2.27c-0.29,0.74-0.53,1.31-0.73,1.72
					c-0.64,1.34-1.53,2.38-2.66,3.13c-1.13,0.74-2.39,1.12-3.76,1.12c-2.03,0-3.75-0.73-5.13-2.18c-1.38-1.45-2.08-3.27-2.08-5.44
					c0-1.65,0.39-3.31,1.18-4.99s2.26-3.89,4.43-6.64c0.52-0.64,1.38-1.67,2.55-3.08c4.58-5.46,8.08-10.13,10.52-13.98
					c2.23,3.53,5.6,8.02,10.11,13.49c1.3,1.55,2.26,2.7,2.88,3.46c2.19,2.75,3.68,4.97,4.46,6.67c0.79,1.69,1.18,3.39,1.18,5.07
					c0,2.17-0.69,3.98-2.08,5.44c-1.38,1.45-3.09,2.18-5.13,2.18c-1.38,0-2.64-0.37-3.78-1.12c-1.14-0.74-2.03-1.79-2.65-3.13
					c-0.19-0.38-0.43-0.96-0.69-1.72c-0.55-1.51-1.18-2.27-1.92-2.27c-0.48,0-0.83,0.25-1.05,0.76c-0.21,0.5-0.32,1.36-0.32,2.59
					c0,1.96,0.24,3.66,0.69,5.13C34.11,46.17,34.81,47.42,35.74,48.45z"/>
				<path class="st3" d="M75.5,48.91c-2.95-4.58-6.54-9.37-10.78-14.39c-0.69-0.89-1.19-1.51-1.48-1.86
					c-2.62-3.22-4.41-5.88-5.38-8.01c-0.97-2.12-1.45-4.27-1.45-6.44c0-2.95,0.83-5.35,2.49-7.21c1.66-1.87,3.76-2.79,6.33-2.79
					c1.82,0,3.44,0.52,4.86,1.57c1.41,1.05,2.53,2.54,3.34,4.48c0.12,0.25,0.26,0.61,0.43,1.07c0.5,1.48,1.05,2.21,1.66,2.21
					c0.58,0,1.12-0.69,1.6-2.1c0.1-0.31,0.19-0.54,0.26-0.69c0.76-2.1,1.87-3.71,3.33-4.84s3.14-1.7,5.04-1.7
					c2.55,0,4.66,0.93,6.33,2.79c1.66,1.86,2.49,4.27,2.49,7.21c0,2.13-0.48,4.25-1.43,6.35s-2.75,4.8-5.41,8.09
					c-0.35,0.45-0.97,1.2-1.86,2.27C81.62,40.03,78.18,44.68,75.5,48.91z"/>
				<path class="st3" d="M31.69,52.93L48.35,73.6L31.69,94.24L15.45,73.6L31.69,52.93z"/>
				<path class="st2" d="M70.96,93.72c1-1.24,1.74-2.56,2.2-3.97c0.46-1.41,0.68-3.06,0.68-4.95c0-1.18-0.13-2.1-0.39-2.76
					c-0.26-0.66-0.63-0.99-1.09-0.99c-0.52,0-1.18,0.53-1.98,1.6c-0.45,0.58-0.81,1.04-1.07,1.36c-1.3,1.51-2.51,2.56-3.63,3.16
					s-2.39,0.89-3.81,0.89c-2.33,0-4.22-0.86-5.67-2.59c-1.45-1.72-2.18-3.96-2.18-6.68c0-2.77,0.74-5.04,2.24-6.79
					c1.49-1.75,3.38-2.63,5.67-2.63c1.69,0,3.48,0.61,5.41,1.82c1.92,1.21,3.05,1.82,3.4,1.82c0.33,0,0.6-0.09,0.81-0.28
					s0.32-0.43,0.32-0.74c0-0.45-0.78-1.36-2.33-2.73c-0.47-0.37-0.82-0.66-1.07-0.87c-0.83-0.74-1.48-1.62-1.93-2.67
					c-0.46-1.05-0.68-2.18-0.68-3.4c0-2.54,0.86-4.55,2.59-6.01c1.72-1.47,4.08-2.21,7.06-2.21c3.04,0,5.41,0.74,7.11,2.23
					c1.69,1.48,2.54,3.56,2.54,6.23c0,1.07-0.25,2.13-0.74,3.18c-0.5,1.05-1.18,1.96-2.05,2.72c-0.24,0.19-0.55,0.47-0.96,0.81
					c-1.55,1.34-2.33,2.24-2.33,2.73c0,0.31,0.11,0.56,0.32,0.74S79.88,73,80.2,73c0.35,0,1.48-0.61,3.4-1.82s3.72-1.82,5.41-1.82
					c2.29,0,4.17,0.87,5.67,2.63s2.24,4.02,2.24,6.79c0,2.73-0.72,4.96-2.16,6.68s-3.34,2.59-5.68,2.59c-1.43,0-2.72-0.3-3.85-0.9
					c-1.13-0.6-2.33-1.65-3.59-3.14c-0.25-0.31-0.59-0.73-1.02-1.25c-0.81-1.14-1.48-1.72-2-1.72c-0.45,0-0.8,0.3-1.06,0.9
					s-0.39,1.43-0.39,2.5c0,2.21,0.22,4.02,0.67,5.45c0.45,1.43,1.17,2.7,2.15,3.82H70.96z"/>
			</g>
		</g>
		<g>
			<defs>
				<rect id="SVGID_3_" x="6.33" y="1.73" width="97.17" height="100.02"/>
			</defs>
			<clipPath id="SVGID_4_">
				<use xlink:href="#SVGID_3_"  style="overflow:visible;"/>
			</clipPath>
			<path class="st4" d="M90.18,98.35H19.77c-6.16,0-11.16-5-11.16-11.16V15.22c0-6.16,5-11.16,11.16-11.16h70.41
				c6.16,0,11.16,5,11.16,11.16v71.96C101.34,93.35,96.34,98.35,90.18,98.35z"/>
		</g>
		<g>
			<defs>
				<rect id="SVGID_5_" x="6.33" y="1.73" width="97.17" height="100.02"/>
			</defs>
			<clipPath id="SVGID_6_">
				<use xlink:href="#SVGID_5_"  style="overflow:visible;"/>
			</clipPath>
			<g class="st5">
			</g>
		</g>
	</g>
	<g>
	</g>
	<g>
	</g>
	<g>
	</g>
	<g>
	</g>
	<g>
	</g>
	<g>
	</g>
	<g>
	</g>
	<g>
	</g>
</g>
<g>
</g>
<g>
</g>
<g>
</g>
<g>
</g>
<g>
</g>
<g>
</g>
</svg>
