<?xml version="1.0" encoding="utf-8"?>
<!-- Generator: Adobe Illustrator 24.1.0, SVG Export Plug-In . SVG Version: 6.00 Build 0)  -->
<svg version="1.1" id="Layer_1" xmlns="http://www.w3.org/2000/svg" xmlns:xlink="http://www.w3.org/1999/xlink" x="0px" y="0px"
	 viewBox="0 0 631.5 74.85" style="enable-background:new 0 0 631.5 74.85;" xml:space="preserve">
<style type="text/css">
	.st0{fill:none;}
	.st1{clip-path:url(#SVGID_2_);}
	.st2{fill:#010101;}
	.st3{fill:#BE202E;}
	.st4{clip-path:url(#SVGID_4_);fill:none;stroke:#010101;stroke-width:3;stroke-miterlimit:10;}
	.st5{clip-path:url(#SVGID_6_);}
</style>
<g>
	<rect x="83.43" y="13.07" class="st0" width="587.98" height="61.79"/>
	<path d="M100.45,40.88c-1.16,0-3.42-0.12-4.64-0.18v12.2c0,1.89,1.04,2.75,2.38,2.75v1.1H85.69v-1.1c1.46,0,2.32-0.98,2.32-2.75
		V17.82c0-1.65-0.92-2.62-2.32-2.62v-1.16c3.72-0.18,10.43-0.49,14.64-0.49c11.77,0,18.55,3.72,18.55,13.67
		C118.88,35.39,112.1,40.88,100.45,40.88z M100.94,19.96c-2.26,0-3.78,0.06-5.12,0.12v14.34c1.4,0.12,3.17,0.18,4.82,0.18
		c7.56,0,10.37-2.99,10.37-7.38C111.01,22.21,107.1,19.96,100.94,19.96z"/>
	<path d="M146.07,56.74l-8.6,0.18c-0.12-0.43-0.49-1.89-0.61-2.93h-0.06c-1.53,1.89-4.21,3.84-8.36,3.84
		c-6.59,0-10.55-3.11-10.55-7.99c0-5.49,3.42-8.11,11.65-10.07l7.02-1.65v-0.31c0-2.99-1.59-4.21-5.98-4.21
		c-5.73,0-7.63,1.52-8.66,2.93l-1.04-0.24l1.46-7.56c1.89-0.43,6.04-1.1,9.76-1.1c7.93,0,11.77,3.17,11.77,11.47v13.67
		c0,2.2,0.67,2.87,2.2,2.87V56.74z M136.55,43.2l-5.98,1.52c-3.78,0.98-5.25,2.14-5.25,4.51c0,1.77,1.22,2.93,4.09,2.93
		c5.37,0,7.14-3.29,7.14-6.1V43.2z"/>
	<path d="M158.08,57.78c-4.09,0-7.44-0.79-9.7-1.65l-1.53-7.81l1.28-0.37c1.1,2.14,3.6,4.39,9.27,4.39c5.43,0,7.2-1.4,7.2-3.29
		c0-1.83-1.34-2.5-3.78-3.11l-6.22-1.59c-4.15-1.04-6.83-3.78-6.83-8.17c0-5.61,5.67-8.54,12.26-8.54c3.72,0,6.71,0.43,9.21,0.92
		l1.16,7.63l-1.16,0.31c-1.1-2.2-4.45-3.29-8.48-3.29c-4.58,0-5.73,1.46-5.73,2.87c0,1.34,0.85,1.95,3.42,2.56l5.31,1.22
		c4.39,1.04,8.3,3.29,8.3,8.66C172.05,54.12,167.72,57.78,158.08,57.78z"/>
	<path d="M201.64,56.74l-8.6,0.18c-0.12-0.43-0.49-1.89-0.61-2.93h-0.06c-1.53,1.89-4.21,3.84-8.36,3.84
		c-6.59,0-10.55-3.11-10.55-7.99c0-5.49,3.42-8.11,11.65-10.07l7.02-1.65v-0.31c0-2.99-1.59-4.21-5.98-4.21
		c-5.73,0-7.63,1.52-8.66,2.93l-1.04-0.24l1.46-7.56c1.89-0.43,6.04-1.1,9.76-1.1c7.93,0,11.77,3.17,11.77,11.47v13.67
		c0,2.2,0.67,2.87,2.2,2.87V56.74z M192.12,43.2l-5.98,1.52c-3.78,0.98-5.25,2.14-5.25,4.51c0,1.77,1.22,2.93,4.09,2.93
		c5.37,0,7.14-3.29,7.14-6.1V43.2z"/>
	<path d="M233.25,56.74l-8.66,0.18c-0.24-0.55-0.49-2.2-0.55-2.87h-0.12c-1.65,2.2-4.03,3.78-7.63,3.78
		c-7.81,0-13.97-6.1-13.97-15.07c0-9.03,6.89-15.13,14.34-15.13c3.36,0,5.43,0.79,6.71,1.59h0.18V18c0-2.01-0.79-2.62-2.32-2.81
		v-1.04l9.76-1.1v39.65c0,2.32,0.79,2.93,2.26,2.93V56.74z M223.55,36.24c-1.59-1.34-3.54-2.5-6.47-2.5c-4.21,0-7.26,3.29-7.26,9.03
		c0,5.8,3.11,9.21,7.26,9.21c3.11,0,5.06-1.83,6.47-3.54V36.24z"/>
	<path d="M242.41,48.02c1.28,2.62,3.6,3.84,8.48,3.84c3.84,0,7.08-1.71,8.24-3.54l1.04,0.24l-1.28,7.2
		c-1.53,0.67-5.31,2.07-8.79,2.07c-8.91,0-15.86-5.12-15.86-14.82c0-9.15,6.71-15.37,14.52-15.37c9.46,0,12.38,6.71,13.12,14.03
		L242.41,48.02z M254,38.5c-0.37-2.87-2.07-4.88-5.25-4.88c-4.27,0-7.32,3.97-7.38,8.48c0,0.18,0,0.43,0,0.61L254,38.5z"/>
	<path d="M294.41,56.74h-12.02v-1.1c1.52,0,2.32-0.79,2.32-2.75V39.66c0-4.09-1.59-5.55-5.25-5.55c-2.75,0-5.31,2.44-7.02,4.21V52.9
		c0,2.26,0.85,2.75,2.2,2.75v1.1h-11.96v-1.1c1.34,0,2.26-0.49,2.26-2.75V32.71c0-2.32-1.04-2.93-2.26-2.93v-1.1l9.15-1.04v4.64
		h0.18c1.71-1.77,5.31-4.64,9.52-4.64c6.59,0,10.68,3.9,10.68,10.49V52.9c0,2.26,0.98,2.75,2.2,2.75V56.74z"/>
	<path d="M322.99,56.74l-8.6,0.18c-0.12-0.43-0.49-1.89-0.61-2.93h-0.06c-1.52,1.89-4.21,3.84-8.36,3.84
		c-6.59,0-10.55-3.11-10.55-7.99c0-5.49,3.42-8.11,11.65-10.07l7.02-1.65v-0.31c0-2.99-1.59-4.21-5.98-4.21
		c-5.73,0-7.63,1.52-8.66,2.93l-1.04-0.24l1.46-7.56c1.89-0.43,6.04-1.1,9.76-1.1c7.93,0,11.77,3.17,11.77,11.47v13.67
		c0,2.2,0.67,2.87,2.2,2.87V56.74z M313.47,43.2l-5.98,1.52c-3.78,0.98-5.25,2.14-5.25,4.51c0,1.77,1.22,2.93,4.09,2.93
		c5.37,0,7.14-3.29,7.14-6.1V43.2z"/>
	<path d="M354.04,57.17c-4.94,0-10.92-0.12-15.19-0.43v-1.1c1.53,0,2.32-0.98,2.32-3.23V17.82c0-1.71-0.85-2.62-2.32-2.62v-1.16
		c3.9-0.24,10.86-0.43,14.82-0.43c11.16,0,17.26,3.36,17.26,11.53c0,3.36-2.38,7.08-5.92,8.54v0.12c3.9,1.34,7.81,4.39,7.81,10
		C372.82,51.43,367.52,57.17,354.04,57.17z M354.28,19.9c-1.65,0-3.9,0.12-5.37,0.18v10.98c1.4,0.06,3.72,0.12,6.16,0.12
		c5.31,0,7.87-2.5,7.87-5.43C362.94,21.79,359.89,19.9,354.28,19.9z M354.71,37.1c-2.2,0-4.03,0.06-5.79,0.18V50.7
		c1.59,0.12,3.84,0.12,5.31,0.12c6.47,0,10.8-2.32,10.8-6.95C365.02,39.05,360.14,37.1,354.71,37.1z"/>
	<path d="M395.77,36.06l-1.28-0.24c-0.37-1.34-1.4-1.71-3.29-1.71c-3.23,0-5.86,2.2-7.32,4.88V52.9c0,2.26,0.79,2.75,2.44,2.75v1.1
		h-12.2v-1.1c1.4,0,2.26-0.73,2.26-2.75V32.71c0-2.07-0.92-2.93-2.26-2.93v-1.1l9.15-1.04v5.31h0.18c1.53-2.5,4.51-5.31,8.42-5.31
		c2.75,0,3.96,0.31,5.43,1.04L395.77,36.06z"/>
	<path d="M410.06,56.74H398.1v-1.1c1.4,0,2.26-0.73,2.26-2.75V32.83c0-2.07-0.73-3.05-2.26-3.05v-1.1l9.76-1.04V52.9
		c0,2.01,0.67,2.75,2.2,2.75V56.74z M404.02,20.87c-2.44,0-4.45-1.71-4.45-3.72c0-2.01,2.01-3.6,4.45-3.6c2.44,0,4.45,1.59,4.45,3.6
		C408.47,19.16,406.46,20.87,404.02,20.87z"/>
	<path d="M441.91,56.74l-8.66,0.18c-0.24-0.55-0.49-2.2-0.55-2.87h-0.12c-1.65,2.2-4.03,3.78-7.63,3.78
		c-7.81,0-13.97-6.1-13.97-15.07c0-9.03,6.89-15.13,14.34-15.13c3.36,0,5.43,0.79,6.71,1.59h0.18V18c0-2.01-0.79-2.62-2.32-2.81
		v-1.04l9.76-1.1v39.65c0,2.32,0.79,2.93,2.26,2.93V56.74z M432.21,36.24c-1.59-1.34-3.54-2.5-6.47-2.5c-4.21,0-7.26,3.29-7.26,9.03
		c0,5.8,3.11,9.21,7.26,9.21c3.11,0,5.06-1.83,6.47-3.54V36.24z"/>
	<path d="M471.99,28.68c-0.24,1.4-0.31,2.26-0.31,4.58v23.85c0,6.47-4.33,11.35-13.36,11.35c-5.25,0-7.93-0.85-10.43-1.53
		l-1.28-7.69l0.98-0.3c1.59,2.32,5.06,3.23,9.03,3.23c5.49,0,7.57-1.77,7.57-4.51v-2.5h-0.12c-1.4,1.28-3.72,2.44-6.47,2.44
		c-8.3,0-14.7-5.25-14.7-14.82c0-8.97,6.34-15.13,14.76-15.13c5.92,0,8.6,2.44,10.25,4.21h0.06l2.2-3.17H471.99z M464.18,36.79
		c-1.1-1.34-3.11-3.05-6.41-3.05c-4.03,0-7.38,2.99-7.38,9.03c0,5.73,3.11,8.85,7.32,8.85c3.05,0,5-1.28,6.47-2.99V36.79z"/>
	<path d="M482.82,48.02c1.28,2.62,3.6,3.84,8.48,3.84c3.84,0,7.08-1.71,8.24-3.54l1.04,0.24l-1.28,7.2
		c-1.52,0.67-5.31,2.07-8.78,2.07c-8.91,0-15.86-5.12-15.86-14.82c0-9.15,6.71-15.37,14.52-15.37c9.46,0,12.38,6.71,13.12,14.03
		L482.82,48.02z M494.41,38.5c-0.37-2.87-2.07-4.88-5.25-4.88c-4.27,0-7.32,3.97-7.38,8.48c0,0.18,0,0.43,0,0.61L494.41,38.5z"/>
	<path d="M551.14,46.19l-1.83,10.74c-0.3-0.06-1.28-0.18-2.26-0.18c-1.59,0-5.61,0.92-8.17,0.92c-12.44,0-20.8-8.17-20.8-22.27
		c0-13.48,9.46-22.33,21.05-22.33c2.38,0,6.22,0.85,7.69,0.85c1.04,0,2.38-0.24,2.38-0.24l1.77,9.52l-1.22,0.37
		c-1.53-2.38-5-3.9-10.37-3.9c-7.87,0-13.24,5.19-13.24,15.68c0,10.68,6.04,15.8,13.48,15.8c5.67,0,8.78-2.44,10.31-5.25
		L551.14,46.19z"/>
	<path d="M563.85,56.74h-11.96v-1.1c1.22,0,2.26-0.67,2.26-2.62V17.94c0-1.77-0.85-2.75-2.26-2.75v-1.04l9.76-1.1v39.96
		c0,2.14,0.98,2.62,2.2,2.62V56.74z"/>
	<path d="M595.9,56.74l-8.48,0.18c-0.24-0.73-0.55-2.44-0.67-3.6h-0.18c-1.77,1.83-5.25,4.58-9.46,4.58
		c-6.59,0-10.68-3.97-10.68-10.49v-14.7c0-1.89-0.67-2.93-2.26-2.93v-1.1l9.76-1.04v18.3c0,3.84,1.53,5.49,5.25,5.49
		c2.75,0,5.12-2.26,7.02-4.27V32.4c0-1.65-0.92-2.62-2.32-2.62v-1.1l9.82-1.04v25.07c0,2.32,0.67,2.93,2.2,2.93V56.74z"/>
	<path d="M613.02,57.84c-6.16,0-8.66-2.26-10.55-4.27h-0.18l-2.32,3.17h-1.4c0,0,0.3-2.32,0.3-4.64V17.94
		c0-1.71-0.73-2.75-2.26-2.75v-1.04l9.76-1.1v16.96h0.12c1.46-1.16,4.58-2.38,7.69-2.38c7.08,0,13.24,5.67,13.24,14.82
		C627.42,52.47,620.71,57.84,613.02,57.84z M612.47,33.74c-2.87,0-5.06,1.59-6.1,2.81v12.38c1.4,2.01,3.54,3.05,6.41,3.05
		c4.15,0,7.08-3.48,7.08-9.52C619.85,36.61,616.68,33.74,612.47,33.74z"/>
</g>
<rect class="st0" width="631.5" height="74.85"/>
<rect x="-1.87" class="st0" width="633.37" height="74.85"/>
<g>
	<g>
		<g>
			<defs>
				<rect id="SVGID_1_" x="7.63" y="2.44" width="67.68" height="69.67"/>
			</defs>
			<clipPath id="SVGID_2_">
				<use xlink:href="#SVGID_1_"  style="overflow:visible;"/>
			</clipPath>
			<g class="st1">
				<path class="st2" d="M28.11,34.98h-5.35c0.66-0.72,1.15-1.58,1.47-2.6c0.32-1.02,0.48-2.21,0.48-3.57c0-0.85-0.07-1.45-0.22-1.8
					c-0.15-0.35-0.39-0.53-0.73-0.53c-0.53,0-0.96,0.53-1.32,1.58c-0.2,0.51-0.37,0.91-0.51,1.2c-0.44,0.93-1.06,1.66-1.85,2.18
					c-0.79,0.52-1.66,0.78-2.62,0.78c-1.42,0-2.61-0.51-3.57-1.52c-0.96-1.01-1.45-2.28-1.45-3.79c0-1.15,0.27-2.31,0.82-3.47
					c0.55-1.17,1.58-2.71,3.09-4.63c0.36-0.44,0.96-1.16,1.78-2.15c3.19-3.81,5.63-7.05,7.33-9.74c1.55,2.46,3.9,5.59,7.04,9.39
					c0.9,1.08,1.57,1.88,2,2.41c1.52,1.92,2.56,3.46,3.11,4.65c0.55,1.18,0.82,2.36,0.82,3.53c0,1.51-0.48,2.77-1.45,3.79
					c-0.96,1.01-2.16,1.52-3.57,1.52c-0.96,0-1.84-0.26-2.63-0.78c-0.79-0.52-1.41-1.24-1.84-2.18c-0.13-0.27-0.3-0.67-0.48-1.2
					c-0.38-1.05-0.82-1.58-1.33-1.58c-0.34,0-0.58,0.18-0.73,0.53c-0.15,0.35-0.22,0.95-0.22,1.8c0,1.36,0.16,2.55,0.48,3.57
					C26.97,33.4,27.46,34.27,28.11,34.98z"/>
				<path class="st3" d="M55.8,35.31c-2.05-3.19-4.56-6.53-7.51-10.02c-0.48-0.62-0.83-1.05-1.03-1.3c-1.82-2.24-3.07-4.1-3.74-5.58
					c-0.67-1.48-1.01-2.97-1.01-4.48c0-2.05,0.58-3.72,1.73-5.02s2.62-1.94,4.41-1.94c1.27,0,2.4,0.36,3.38,1.09
					s1.76,1.77,2.33,3.12c0.08,0.18,0.18,0.42,0.3,0.75c0.35,1.03,0.73,1.54,1.15,1.54c0.41,0,0.78-0.48,1.11-1.46
					c0.07-0.22,0.13-0.38,0.18-0.48c0.53-1.46,1.3-2.58,2.32-3.37c1.02-0.79,2.19-1.18,3.51-1.18c1.78,0,3.25,0.65,4.41,1.94
					c1.16,1.3,1.73,2.97,1.73,5.02c0,1.49-0.33,2.96-0.99,4.42c-0.66,1.46-1.92,3.34-3.77,5.64c-0.24,0.31-0.67,0.84-1.3,1.58
					C60.07,29.12,57.67,32.36,55.8,35.31z"/>
				<path class="st3" d="M25.29,38.11l11.6,14.4l-11.6,14.37L13.98,52.5L25.29,38.11z"/>
				<path class="st2" d="M52.65,66.51c0.7-0.86,1.21-1.78,1.53-2.76c0.32-0.98,0.48-2.13,0.48-3.45c0-0.82-0.09-1.46-0.27-1.92
					s-0.44-0.69-0.76-0.69c-0.36,0-0.82,0.37-1.38,1.11c-0.31,0.41-0.56,0.72-0.75,0.95c-0.9,1.05-1.75,1.78-2.53,2.2
					c-0.78,0.41-1.67,0.62-2.65,0.62c-1.62,0-2.94-0.6-3.95-1.8c-1.01-1.2-1.52-2.76-1.52-4.66c0-1.93,0.52-3.51,1.56-4.73
					c1.04-1.22,2.35-1.83,3.95-1.83c1.17,0,2.43,0.42,3.77,1.27c1.34,0.84,2.12,1.27,2.37,1.27c0.23,0,0.42-0.06,0.57-0.19
					s0.22-0.3,0.22-0.52c0-0.31-0.54-0.95-1.62-1.9c-0.32-0.25-0.57-0.46-0.75-0.61c-0.58-0.51-1.03-1.13-1.35-1.86
					s-0.48-1.52-0.48-2.37c0-1.77,0.6-3.17,1.8-4.19c1.2-1.02,2.84-1.54,4.92-1.54c2.12,0,3.77,0.52,4.95,1.55s1.77,2.48,1.77,4.34
					c0,0.74-0.17,1.48-0.52,2.22c-0.35,0.73-0.82,1.36-1.43,1.89c-0.16,0.13-0.38,0.32-0.67,0.57c-1.08,0.93-1.62,1.56-1.62,1.9
					c0,0.22,0.07,0.39,0.22,0.52c0.15,0.13,0.34,0.19,0.57,0.19c0.24,0,1.03-0.42,2.37-1.27s2.59-1.27,3.77-1.27
					c1.59,0,2.91,0.61,3.95,1.83c1.04,1.22,1.56,2.8,1.56,4.73c0,1.9-0.5,3.46-1.51,4.66c-1.01,1.2-2.32,1.8-3.96,1.8
					c-1,0-1.89-0.21-2.68-0.63s-1.62-1.15-2.5-2.19c-0.18-0.22-0.41-0.51-0.71-0.87c-0.57-0.79-1.03-1.2-1.4-1.2
					c-0.31,0-0.56,0.21-0.74,0.63c-0.18,0.42-0.27,1-0.27,1.74c0,1.54,0.16,2.8,0.47,3.8c0.31,0.99,0.81,1.88,1.5,2.66H52.65z"/>
			</g>
		</g>
		<g>
			<defs>
				<rect id="SVGID_3_" x="7.63" y="2.44" width="67.68" height="69.67"/>
			</defs>
			<clipPath id="SVGID_4_">
				<use xlink:href="#SVGID_3_"  style="overflow:visible;"/>
			</clipPath>
			<path class="st4" d="M66.03,69.74H16.99c-4.29,0-7.77-3.48-7.77-7.77V11.84c0-4.29,3.48-7.77,7.77-7.77h49.04
				c4.29,0,7.77,3.48,7.77,7.77v50.12C73.8,66.26,70.32,69.74,66.03,69.74z"/>
		</g>
		<g>
			<defs>
				<rect id="SVGID_5_" x="7.63" y="2.44" width="67.68" height="69.67"/>
			</defs>
			<clipPath id="SVGID_6_">
				<use xlink:href="#SVGID_5_"  style="overflow:visible;"/>
			</clipPath>
			<g class="st5">
			</g>
		</g>
	</g>
	<g>
	</g>
	<g>
	</g>
	<g>
	</g>
	<g>
	</g>
	<g>
	</g>
	<g>
	</g>
	<g>
	</g>
	<g>
	</g>
</g>
<g>
</g>
<g>
</g>
<g>
</g>
<g>
</g>
<g>
</g>
<g>
</g>
</svg>
